<svg width="24" height="24" viewBox="0 0 24 24" fill="none" xmlns="http://www.w3.org/2000/svg">
<rect opacity="0.01" x="3.85716" y="3.85631" width="16.2857" height="16.2857" fill="#D8D8D8" stroke="#979797" stroke-width="0.857143"/>
<path fill-rule="evenodd" clip-rule="evenodd" d="M0 12C0 5.38365 5.38365 0 12 0C18.6169 0 24 5.38365 24 12C24 18.6169 18.6169 24 12 24C5.38365 24 0 18.6169 0 12ZM12 4.8005C12.497 4.8005 12.9 5.20345 12.9 5.7005V11.1002H18.3C18.7971 11.1002 19.2 11.5031 19.2 12.0002C19.2 12.4972 18.7971 12.9002 18.3 12.9002H12.9V18.3005C12.9 18.7976 12.497 19.2005 12 19.2005C11.5029 19.2005 11.1 18.7976 11.1 18.3005V12.9002H5.70003C5.20298 12.9002 4.80003 12.4972 4.80003 12.0002C4.80003 11.5031 5.20298 11.1002 5.70003 11.1002H11.1V5.7005C11.1 5.20345 11.5029 4.8005 12 4.8005Z" fill="#1084FE"/>
</svg>
