<svg width="20" height="20" viewBox="0 0 20 20" fill="none" xmlns="http://www.w3.org/2000/svg">
<g clip-path="url(#clip0_662_1000)">
<path d="M13.6938 11.0661C13.2151 10.5875 12.658 10.2159 12.0514 9.96334C12.8669 9.36109 13.3968 8.39338 13.3968 7.30411C13.3968 5.48223 11.9146 4 10.0927 4C8.27081 4 6.78859 5.48222 6.78859 7.30411C6.78859 8.39337 7.31852 9.36109 8.134 9.96334C7.52742 10.2159 6.97024 10.5875 6.49161 11.0661C5.52973 12.028 5 13.3069 5 14.6672C5 15.0442 5.30565 15.3498 5.68266 15.3498C6.05968 15.3498 6.36533 15.0442 6.36533 14.6672C6.36533 12.6119 8.03742 10.9398 10.0927 10.9398C12.148 10.9398 13.82 12.6119 13.82 14.6672C13.82 15.0442 14.1257 15.3498 14.5027 15.3498C14.8797 15.3498 15.1854 15.0442 15.1854 14.6672C15.1854 13.3069 14.6556 12.028 13.6938 11.0661H13.6938ZM10.0927 5.36534C11.1618 5.36534 12.0315 6.23508 12.0315 7.30411C12.0315 8.37314 11.1617 9.24289 10.0927 9.24289C9.02368 9.24289 8.15394 8.37314 8.15394 7.30411C8.15394 6.23508 9.02368 5.36534 10.0927 5.36534Z" fill="#DDDDDD"/>
<circle cx="10" cy="10" r="9.25" stroke="#DDDDDD" stroke-width="1.5"/>
</g>
<defs>
<clipPath id="clip0_662_1000">
<rect width="20" height="20" fill="white"/>
</clipPath>
</defs>
</svg>
