<svg width="24" height="24" viewBox="0 0 24 24" fill="none" xmlns="http://www.w3.org/2000/svg">
<path d="M17.813 4.653h.854c1.51.054 2.769.578 3.773 1.574 1.004.995 1.524 2.249 1.56 3.76v7.36c-.036 1.51-.556 2.769-1.56 3.773s-2.262 1.524-3.773 1.56H5.333c-1.51-.036-2.769-.556-3.773-1.56S.036 18.858 0 17.347v-7.36c.036-1.511.556-2.765 1.56-3.76 1.004-.996 2.262-1.52 3.773-1.574h.774l-1.174-1.12a1.234 1.234 0 0 1-.373-.906c0-.356.124-.658.373-.907l.027-.027c.267-.249.573-.373.92-.373.347 0 .653.124.92.373L9.653 4.44c.071.071.134.142.187.213h4.267a.836.836 0 0 1 .213-.213l2.853-2.747c.267-.249.573-.373.92-.373.347 0 .662.151.929.4.267.249.391.551.391.907 0 .356-.124.657-.373.906L17.813 4.653zM5.333 7.24c-.746.018-1.373.276-1.88.773-.506.498-.769 1.13-.789 1.894v7.52c.02.746.283 1.391.789 1.907.506.515 1.134.773 1.88.773h13.334c.746 0 1.373-.258 1.88-.773.506-.516.769-1.161.789-1.907v-7.52c-.02-.765-.283-1.396-.789-1.894-.507-.497-1.134-.755-1.88-.773H5.333zM8 11.107c.373 0 .684.124.933.373.249.249.373.56.373.933a1.237 1.237 0 0 1-.373.934 1.237 1.237 0 0 1-.933.373 1.237 1.237 0 0 1-.933-.373A1.237 1.237 0 0 1 6.693 12.413c0-.373.124-.684.373-.933A1.237 1.237 0 0 1 8 11.107zM16 11.107c.373 0 .684.124.933.373.249.249.373.56.373.933a1.237 1.237 0 0 1-.373.934 1.237 1.237 0 0 1-.933.373 1.237 1.237 0 0 1-.933-.373 1.237 1.237 0 0 1-.374-.934c0-.373.125-.684.374-.933A1.237 1.237 0 0 1 16 11.107z" fill="#00AEEC"/>
</svg> 