<svg width="28" height="28" viewBox="0 0 28 28" fill="none" xmlns="http://www.w3.org/2000/svg">
<path d="M16.7292 11.618H23.0881C23.2108 11.6209 23.3317 11.6479 23.4438 11.6974C23.556 11.747 23.6574 11.8181 23.742 11.9068C23.8267 11.9955 23.893 12.1 23.9372 12.2143C23.9814 12.3286 24.0027 12.4505 23.9997 12.573V23.045C24.0027 23.1675 23.9814 23.2894 23.9372 23.4037C23.893 23.518 23.8267 23.6225 23.742 23.7112C23.6574 23.7998 23.556 23.871 23.4438 23.9206C23.3317 23.9701 23.2108 23.9971 23.0881 24H12.1935C12.0708 23.9971 11.95 23.9701 11.8378 23.9206C11.7256 23.871 11.6243 23.7998 11.5396 23.7112C11.4549 23.6225 11.3886 23.518 11.3444 23.4037C11.3002 23.2894 11.2789 23.1675 11.2819 23.045V16.382H4.91186C4.78922 16.3791 4.66835 16.3521 4.55615 16.3026C4.44396 16.253 4.34264 16.1819 4.25798 16.0932C4.17333 16.0045 4.10699 15.9 4.06277 15.7857C4.01856 15.6714 3.99732 15.5495 4.00027 15.427V4.95502C3.99732 4.83251 4.01856 4.71062 4.06277 4.59632C4.10699 4.48201 4.17333 4.37753 4.25798 4.28884C4.34264 4.20015 4.44396 4.129 4.55615 4.07943C4.66835 4.02987 4.78922 4.00288 4.91186 4H15.8176C15.9403 4.00288 16.0611 4.02987 16.1733 4.07943C16.2855 4.129 16.3868 4.20015 16.4715 4.28884C16.5562 4.37753 16.6225 4.48201 16.6667 4.59632C16.7109 4.71062 16.7322 4.83251 16.7292 4.95502V11.618ZM4.91186 15.427H15.8176V4.95504H4.91186V15.427V15.427ZM17.3407 15.1049L15.3396 20.5463H16.2289L16.7181 19.1471H18.9415L19.4307 20.5463H20.2867L18.2745 15.1049H17.3407ZM16.9071 18.4364L17.7742 15.9711L18.6969 18.4364H16.9071ZM9.98122 6.221H10.6705V7.6091H13.3163V11.2848H12.6271V10.8518H10.6705V13.4059H10.0146V10.8518H8.11356V11.2848H7.42431V7.6091H10.0146L9.98122 6.221ZM8.11357 10.141H10.0035V8.31982H8.11356L8.11357 10.141ZM10.6705 10.141H12.6271V8.31982H10.6705V10.141Z" fill="#31394C"/>
</svg>
