<svg width="32" height="32" viewBox="0 0 32 32" fill="none" xmlns="http://www.w3.org/2000/svg">
<path fill-rule="evenodd" clip-rule="evenodd" d="M10.5864 4.31897H9.27555V6.39455H4.97872V12.3179H6.2532V11.6503H9.27555V15.7043H10.5864V11.6503H13.6209V12.3179H14.8954V6.39455H10.5864V4.31897ZM9.27555 10.4122H6.2532V7.63262H9.27555V10.4122ZM13.6209 10.4122H10.5864V7.63262H13.6209V10.4122Z" fill="#31394C"/>
<path d="M20.5547 22.841H23.587L22.104 18.6964H22.051L20.5547 22.841Z" fill="#31394C"/>
<path fill-rule="evenodd" clip-rule="evenodd" d="M0 1.10345C0 0.494031 0.494031 0 1.10345 0H18.7586C19.368 0 19.8621 0.494031 19.8621 1.10345V12.1379H30.8966C31.506 12.1379 32 12.632 32 13.2414V30.8966C32 31.506 31.506 32 30.8966 32H13.2414C12.632 32 12.1379 31.506 12.1379 30.8966V19.8621H1.10345C0.494031 19.8621 0 19.368 0 18.7586V1.10345ZM1.65517 18.2069V1.65517H18.2069V18.2069H1.65517ZM21.1903 17.028H22.9514L26.5663 26.4824H24.9112L24.0505 24.1122H20.0913L19.2306 26.4824H17.5754L21.1903 17.028Z" fill="#31394C"/>
</svg>
