<svg width="16" height="16" viewBox="0 0 16 16" fill="none" xmlns="http://www.w3.org/2000/svg">
<g clip-path="url(#clip0_682_1035)">
<path d="M14.848 13.184H8.24C7.984 13.184 7.776 12.976 7.776 12.72V3.29603C7.776 3.04003 7.984 2.83203 8.24 2.83203H14.848C15.104 2.83203 15.312 3.04003 15.312 3.29603V12.72C15.312 12.976 15.104 13.184 14.848 13.184Z" fill="white"/>
<path d="M12.96 5.64773H8.24C7.984 5.64773 7.776 5.43973 7.776 5.18373C7.776 4.92773 7.984 4.71973 8.24 4.71973H12.96C13.216 4.71973 13.424 4.92773 13.424 5.18373C13.424 5.42373 13.216 5.64773 12.96 5.64773ZM12.96 7.53573H8.24C7.984 7.53573 7.776 7.32773 7.776 7.07173C7.776 6.81573 7.984 6.60773 8.24 6.60773H12.96C13.216 6.60773 13.424 6.81573 13.424 7.07173C13.424 7.32773 13.216 7.53573 12.96 7.53573ZM12.96 9.40773H8.24C7.984 9.40773 7.776 9.19973 7.776 8.94373C7.776 8.68773 7.984 8.47973 8.24 8.47973H12.96C13.216 8.47973 13.424 8.68773 13.424 8.94373C13.424 9.19973 13.216 9.40773 12.96 9.40773ZM12.96 11.2957H8.24C7.984 11.2957 7.776 11.0877 7.776 10.8317C7.776 10.5757 7.984 10.3677 8.24 10.3677H12.96C13.216 10.3677 13.424 10.5757 13.424 10.8317C13.424 11.0877 13.216 11.2957 12.96 11.2957Z" fill="#B2B2B2"/>
<path d="M9.48799 15.5516L0.687988 13.8716V2.11164L9.48799 0.431641V15.5516Z" fill="#0D47A1"/>
<path d="M6.99195 10.8801H5.87195L5.13595 7.18412C5.08795 6.97612 5.07195 6.75212 5.07195 6.54412H5.05595C5.03995 6.80012 5.00795 7.02412 4.97595 7.18412L4.20795 10.8801H3.03995L1.87195 5.12012H2.97595L3.59995 8.96012C3.63195 9.12012 3.64795 9.34412 3.66395 9.61612H3.67995C3.67995 9.40812 3.72795 9.18412 3.77595 8.94412L4.57595 5.12012H5.64795L6.38395 8.99212C6.41595 9.13612 6.43195 9.34412 6.44795 9.61612H6.46395C6.47995 9.40812 6.49595 9.20012 6.52795 8.97612L7.15195 5.13612H8.15995L6.99195 10.8801Z" fill="white"/>
</g>
<defs>
<clipPath id="clip0_682_1035">
<rect width="16" height="16" fill="white"/>
</clipPath>
</defs>
</svg>
