<svg width="32" height="32" viewBox="0 0 32 32" fill="none" xmlns="http://www.w3.org/2000/svg">
<path fill-rule="evenodd" clip-rule="evenodd" d="M1.10345 0C0.494031 0 0 0.494031 0 1.10345V18.7586C0 19.368 0.494031 19.8621 1.10345 19.8621H12.1379V30.8966C12.1379 31.506 12.632 32 13.2414 32H30.8966C31.506 32 32 31.506 32 30.8966V13.2414C32 12.632 31.506 12.1379 30.8966 12.1379H19.8621V1.10345C19.8621 0.494031 19.368 0 18.7586 0H1.10345ZM17.1166 19.8621H13.7931V30.3448H30.3448V13.7931H19.8621V18.6273H21.4135V16.5517H22.7244V18.6273H27.0333V24.5506H25.7589V23.883H22.7244V27.9371H21.4135V23.883H18.3911V24.5506H17.1166V19.8621ZM9.0524 4.89009H10.8135L14.4284 14.3444H12.7732L11.9125 11.9742H7.95336L7.09267 14.3444H5.4375L9.0524 4.89009ZM8.41681 10.7031H11.4491L9.96605 6.5585H9.91309L8.41681 10.7031ZM21.4135 22.645H18.3911V19.8654H21.4135V22.645ZM25.7589 22.645H22.7244V19.8654H25.7589V22.645Z" fill="#31394C"/>
</svg>
