<svg width="30" height="30" viewBox="0 0 30 30" fill="none" xmlns="http://www.w3.org/2000/svg">
<path fill-rule="evenodd" clip-rule="evenodd" d="M15 30C23.2843 30 30 23.2843 30 15C30 6.71573 23.2843 0 15 0C6.71573 0 0 6.71573 0 15C0 23.2843 6.71573 30 15 30ZM15.2584 19.4173L19.0635 15.4853L8.25774 15.4853C7.71101 15.4853 7.26779 15.0421 7.26779 14.4954C7.26779 13.9487 7.71101 13.5054 8.25774 13.5054H19.0655L15.2584 9.57141C14.8931 9.19395 14.8931 8.59477 15.2584 8.2173C15.641 7.82192 16.275 7.82192 16.6576 8.2173L22.066 13.8059C22.4374 14.1897 22.4374 14.799 22.066 15.1828L16.6576 20.7714C16.275 21.1668 15.641 21.1668 15.2584 20.7714C14.8931 20.3939 14.8931 19.7948 15.2584 19.4173Z" fill="url(#paint0_linear_883_1894)"/>
<defs>
<linearGradient id="paint0_linear_883_1894" x1="30" y1="15.1685" x2="1.82316e-07" y2="15.1685" gradientUnits="userSpaceOnUse">
<stop stop-color="#713CF8"/>
<stop offset="1" stop-color="#539BF2"/>
</linearGradient>
</defs>
</svg>
