<svg width="32" height="32" viewBox="0 0 32 32" fill="none" xmlns="http://www.w3.org/2000/svg">
<path fill-rule="evenodd" clip-rule="evenodd" d="M28.8 1.98367e-06C30.5673 1.98367e-06 32 1.43269 32 3.2L32 28.8C32 30.5673 30.5673 32 28.8 32L3.2 32C1.43269 32 0 30.5673 0 28.8V16C0 14.2327 1.43269 12.8 3.2 12.8H9.6V3.2C9.6 1.43269 11.0327 0 12.8 0L28.8 1.98367e-06ZM19.3434 11.1135C19.3434 10.3531 19.9599 9.73672 20.7202 9.73672C21.4806 9.73672 22.097 10.3531 22.097 11.1135V21.668L22.0971 21.6795C22.0971 21.6902 22.0969 21.7008 22.0967 21.7113C22.0807 22.4579 21.4706 23.0581 20.7202 23.0581C20.6494 23.0581 20.5799 23.0528 20.512 23.0425H10.6238L11.5707 24.0976C12.0457 24.627 12.0305 25.4336 11.5359 25.9447C10.9982 26.5002 10.1055 26.494 9.57564 25.931L6.45474 22.615C5.96081 22.0902 5.96081 21.2716 6.45474 20.7468L9.57562 17.4308C10.1055 16.8679 10.9983 16.8616 11.5359 17.4172C12.0305 17.9283 12.0457 18.7349 11.5707 19.2643L10.6266 20.3166H19.3434V11.1135Z" fill="url(#paint0_linear_893_2376)"/>
<defs>
<linearGradient id="paint0_linear_893_2376" x1="46.7726" y1="16" x2="-1.62744" y2="16.4" gradientUnits="userSpaceOnUse">
<stop stop-color="#B33CF8"/>
<stop offset="1" stop-color="#539BF2"/>
</linearGradient>
</defs>
</svg>
