<svg width="12" height="12" viewBox="0 0 12 12" fill="none" xmlns="http://www.w3.org/2000/svg">
<path fill-rule="evenodd" clip-rule="evenodd" d="M3 10V12L6 10H11C11.5523 10 12 9.55228 12 9V1C12 0.447715 11.5523 0 11 0H1C0.447715 0 0 0.447716 0 1V9C0 9.55229 0.447715 10 1 10H3ZM4.2 9.75778V8.8H1.2V1.2H10.8V8.8H5.63667L4.2 9.75778ZM3 6C3.55228 6 4 5.55228 4 5C4 4.44772 3.55228 4 3 4C2.44772 4 2 4.44772 2 5C2 5.55228 2.44772 6 3 6ZM7 5C7 5.55228 6.55228 6 6 6C5.44772 6 5 5.55228 5 5C5 4.44772 5.44772 4 6 4C6.55228 4 7 4.44772 7 5ZM9 6C9.55229 6 10 5.55228 10 5C10 4.44772 9.55229 4 9 4C8.44771 4 8 4.44772 8 5C8 5.55228 8.44771 6 9 6Z" fill="#28C445"/>
</svg>
