<svg width="12" height="12" viewBox="0 0 12 12" fill="none" xmlns="http://www.w3.org/2000/svg">
<path fill-rule="evenodd" clip-rule="evenodd" d="M0.266796 0.116C0.434123 -0.00238575 0.648495 -0.0322085 0.841781 0.0360103L6 1.85656L11.1582 0.0360103C11.3515 -0.0322085 11.5659 -0.00238575 11.7332 0.116C11.9005 0.234386 12 0.426611 12 0.631583V9.47369C12 9.74147 11.8311 9.98014 11.5786 10.0693L6.2102 11.964C6.07418 12.012 5.92582 12.012 5.7898 11.964L0.421377 10.0693C0.168864 9.98014 0 9.74147 0 9.47369V0.631583C0 0.426611 0.0994698 0.234386 0.266796 0.116ZM5.36842 2.97317L1.26316 1.52426V9.02684L5.36842 10.4758V2.97317ZM6.63158 10.4758L10.7368 9.02684V1.52426L6.63158 2.97317V10.4758ZM2.42295 2.72101L4.63348 3.51048L4.20863 4.70005L1.9981 3.91058L2.42295 2.72101ZM10.0019 3.91058L7.79137 4.70005L7.36652 3.51048L9.57705 2.72101L10.0019 3.91058ZM2.42295 4.93154L4.63348 5.72101L4.20863 6.91058L1.9981 6.1211L2.42295 4.93154ZM10.0019 6.1211L7.79137 6.91058L7.36652 5.72101L9.57705 4.93154L10.0019 6.1211ZM2.42295 7.14206L4.63348 7.93154L4.20863 9.1211L1.9981 8.33163L2.42295 7.14206ZM10.0019 8.33163L7.79137 9.1211L7.36652 7.93154L9.57705 7.14206L10.0019 8.33163Z" fill="#FF884C"/>
</svg>
