<svg width="28" height="28" viewBox="0 0 28 28" fill="none" xmlns="http://www.w3.org/2000/svg">
<path d="M26.6 8.4V26.5902C26.6013 26.7741 26.5664 26.9564 26.4972 27.1267C26.428 27.2971 26.326 27.4521 26.1969 27.583C26.0678 27.7139 25.9142 27.8181 25.7448 27.8897C25.5755 27.9612 25.3937 27.9987 25.2098 28H2.79022C2.42176 28 2.06837 27.8537 1.8077 27.5933C1.54703 27.3329 1.4004 26.9797 1.40002 26.6112V1.3888C1.40002 0.637 2.02862 0 2.80282 0H18.1958L26.6 8.4ZM23.8 9.8H16.8V2.8H4.20002V25.2H23.8V9.8ZM8.40002 7H12.6V9.8H8.40002V7ZM8.40002 12.6H19.6V15.4H8.40002V12.6ZM8.40002 18.2H19.6V21H8.40002V18.2Z" fill="url(#paint0_linear_682_1043)"/>
<defs>
<linearGradient id="paint0_linear_682_1043" x1="20.0137" y1="1.90909" x2="4.97379" y2="25.7202" gradientUnits="userSpaceOnUse">
<stop stop-color="#184DE0"/>
<stop offset="1" stop-color="#9FCBDD"/>
</linearGradient>
</defs>
</svg>
