<?xml version="1.0" standalone="no"?><!DOCTYPE svg PUBLIC "-//W3C//DTD SVG 1.1//EN" "http://www.w3.org/Graphics/SVG/1.1/DTD/svg11.dtd"><svg t="1735199809742" class="icon" viewBox="0 0 1024 1024" version="1.1" xmlns="http://www.w3.org/2000/svg" p-id="38242" xmlns:xlink="http://www.w3.org/1999/xlink" width="200" height="200"><path d="M123.52 178.56C361.6-98.56 802.56-43.52 967.68 279.68H571.52c-71.68 0-117.76-1.92-167.68 24.96-58.24 30.72-103.04 88.32-118.4 155.52l-161.92-281.6z" fill="#EA4335" p-id="38243"></path><path d="M341.76 512c0 94.08 76.16 170.24 170.24 170.24a170.176 170.176 0 1 0 0-340.48C417.92 341.76 341.76 417.92 341.76 512z" fill="#4285F4" p-id="38244"></path><path d="M577.92 734.72c-95.36 28.16-207.36-3.2-268.16-108.8-46.72-80.64-170.24-295.68-226.56-393.6-196.48 301.44-26.88 711.68 329.6 781.44l165.12-279.04z" fill="#34A853" p-id="38245"></path><path d="M670.08 341.76a232.512 232.512 0 0 1 42.88 286.72c-40.32 69.76-170.24 288.64-232.96 394.24 367.36 22.4 635.52-337.28 514.56-680.96h-324.48z" fill="#FBBC05" p-id="38246"></path></svg>