<?xml version="1.0" standalone="no"?><!DOCTYPE svg PUBLIC "-//W3C//DTD SVG 1.1//EN" "http://www.w3.org/Graphics/SVG/1.1/DTD/svg11.dtd"><svg t="1735199914320" class="icon" viewBox="0 0 1024 1024" version="1.1" xmlns="http://www.w3.org/2000/svg" p-id="42001" xmlns:xlink="http://www.w3.org/1999/xlink" width="200" height="200"><path d="M757.76 587.776h235.52c2.048-16.384 2.048-32.768 2.048-49.152 0-79.872-20.48-153.6-59.392-219.136 38.912-102.4 36.864-190.464-14.336-241.664-49.152-49.152-180.224-40.96-329.728 24.576-10.24 0-22.528-2.048-32.768-2.048-204.8 0-376.832 141.312-423.936 329.728 63.488-81.92 131.072-141.312 221.184-184.32l-63.488 63.488C55.296 546.816-20.48 858.112 61.44 937.984c61.44 61.44 172.032 51.2 301.056-12.288 59.392 30.72 126.976 47.104 198.656 47.104 192.512 0 354.304-122.88 413.696-294.912H735.232C702.464 737.28 638.976 778.24 565.248 778.24c-73.728 0-137.216-40.96-169.984-100.352-14.336-28.672-22.528-59.392-22.528-92.16l385.024 2.048z m-382.976-114.688c6.144-96.256 86.016-174.08 182.272-174.08 98.304 0 178.176 77.824 182.272 174.08H374.784z m544.768-348.16c32.768 32.768 32.768 96.256 4.096 172.032-49.152-73.728-118.784-133.12-202.752-165.888 88.064-36.864 159.744-43.008 198.656-6.144z m-798.72 798.72C77.824 880.64 92.16 792.576 145.408 684.032c34.816 96.256 100.352 176.128 186.368 227.328-94.208 43.008-172.032 51.2-210.944 12.288z m0 0" fill="#4D97FF" p-id="42002"></path></svg>