<svg width="32" height="32" viewBox="0 0 32 32" fill="none" xmlns="http://www.w3.org/2000/svg">
<g clip-path="url(#clip0_416_123)">
<path d="M21.9101 17.7062C21.1442 16.9403 20.2528 16.3459 19.2822 15.9417C20.587 14.9781 21.4349 13.4298 21.4349 11.687C21.4349 8.77197 19.0633 6.40039 16.1483 6.40039C13.2333 6.40039 10.8617 8.77195 10.8617 11.687C10.8617 13.4298 11.7096 14.9781 13.0144 15.9417C12.0439 16.3459 11.1524 16.9404 10.3866 17.7062C8.84757 19.2452 8 21.2914 8 23.4679C8 24.0711 8.48904 24.5601 9.09226 24.5601C9.69549 24.5601 10.1845 24.0711 10.1845 23.4679C10.1845 20.1794 12.8599 17.5041 16.1483 17.5041C19.4368 17.5041 22.1121 20.1794 22.1121 23.4679C22.1121 24.0711 22.6011 24.5601 23.2043 24.5601C23.8076 24.5601 24.2966 24.0711 24.2966 23.4679C24.2966 21.2914 23.449 19.2452 21.91 17.7062H21.9101ZM16.1483 8.58493C17.8588 8.58493 19.2504 9.97652 19.2504 11.687C19.2504 13.3974 17.8588 14.789 16.1483 14.789C14.4379 14.789 13.0463 13.3974 13.0463 11.687C13.0463 9.97652 14.4379 8.58493 16.1483 8.58493Z" fill="black"/>
<circle cx="15.9999" cy="15.9998" r="14" stroke="black" stroke-width="2.4"/>
</g>
<defs>
<clipPath id="clip0_416_123">
<rect width="32" height="32" fill="white"/>
</clipPath>
</defs>
</svg>
