<svg width="48" height="48" viewBox="0 0 48 48" fill="none" xmlns="http://www.w3.org/2000/svg">
<rect x="0.75" y="0.75" width="46.5" height="46.5" rx="8.50301" fill="white"/>
<rect x="0.75" y="0.75" width="46.5" height="46.5" rx="8.50301" stroke="#FA4C9B" stroke-width="1.5"/>
<path fill-rule="evenodd" clip-rule="evenodd" d="M11.4507 14.9719V36.7523C11.4507 37.407 11.9814 37.9377 12.6361 37.9377H18.5178C18.611 37.9377 18.7012 37.9048 18.7725 37.8447L23.4536 33.8979C23.61 33.766 23.7002 33.5719 23.7002 33.3673V29.3842C23.7002 29.2962 23.8066 29.2521 23.8689 29.3144L24.1652 29.6107C24.1837 29.6293 24.1942 29.6544 24.1942 29.6806V36.9499C24.1942 37.4955 24.6364 37.9377 25.182 37.9377H31.1852C31.3274 37.9377 31.4648 37.8867 31.5724 37.7938L36.3067 33.7094C36.3937 33.6343 36.4437 33.5251 36.4437 33.4102V22.8728C36.4437 20.7177 34.6967 18.9707 32.5416 18.9707L35.889 11.4285C36.1499 10.8406 35.7196 10.1787 35.0764 10.1787H29.3116C29.0054 10.1787 28.7093 10.2881 28.4766 10.4872L23.7002 14.5747V11.3801C23.7002 10.7192 23.1598 10.1859 22.499 10.1947L16.6296 10.273C16.4111 10.2759 16.2007 10.356 16.0356 10.4992L11.8253 14.151C11.5874 14.3574 11.4507 14.6569 11.4507 14.9719ZM28.3288 11.0326C28.4581 10.7531 28.738 10.5742 29.046 10.5742H34.7501C35.3178 10.5742 35.7003 11.155 35.4762 11.6765L32.0303 19.2674H32.443C33.8754 19.2674 36.0487 20.8272 36.0487 22.8732V33.1964C36.0487 33.6328 35.6948 33.9866 35.2584 33.9866H29.5288C29.0923 33.9866 28.7385 33.6328 28.7385 33.1964V26.3801C28.7385 25.8345 28.2962 25.3922 27.7506 25.3922H23.404V33.1964C23.404 33.6328 23.0502 33.9866 22.6137 33.9866H16.7853C16.3488 33.9866 15.995 33.6328 15.995 33.1964V11.3645C15.995 10.928 16.3488 10.5742 16.7853 10.5742H22.6137C23.0502 10.5742 23.404 10.928 23.404 11.3645V19.2674H24.6768L28.3288 11.0326Z" fill="url(#paint0_linear_442_359)"/>
<path d="M20.1438 13.5371V22.255M20.1438 30.9729V22.255M20.1438 22.255H27.454M32.7391 30.9729V25.2186C32.7391 23.5819 31.4122 22.255 29.7755 22.255H27.454M27.454 22.255L31.1585 13.5371" stroke="url(#paint1_linear_442_359)" stroke-width="0.578313"/>
<defs>
<linearGradient id="paint0_linear_442_359" x1="34.988" y1="10.1787" x2="11.4507" y2="37.9377" gradientUnits="userSpaceOnUse">
<stop stop-color="#F505F7"/>
<stop offset="1" stop-color="#FF884C"/>
</linearGradient>
<linearGradient id="paint1_linear_442_359" x1="19.6048" y1="30.9977" x2="30.7662" y2="13.5326" gradientUnits="userSpaceOnUse">
<stop stop-color="#FF884C"/>
<stop offset="1" stop-color="#F505F7"/>
</linearGradient>
</defs>
</svg>
