<svg width="20" height="20" viewBox="0 0 20 20" fill="none" xmlns="http://www.w3.org/2000/svg">
<g clip-path="url(#clip0_63_1376)">
<path d="M17.6794 3.49305C17.5503 3.37276 17.4061 3.23876 17.2503 3.09446C16.8051 2.68209 16.3561 2.26968 15.9316 1.88453C15.8837 1.84105 15.8837 1.84105 15.8357 1.7976C15.2692 1.28479 14.7967 0.866729 14.4475 0.572141C14.2432 0.399787 14.0824 0.270717 13.9643 0.185581C13.8858 0.129074 13.8221 0.0883739 13.7592 0.0585686C13.68 0.021033 13.6062 -0.0018365 13.5021 0.000115789C13.2235 0.00533886 13 0.22987 13 0.511381V1.5108V2.51021V4.50905V5.00875H13.5H17.5L17 4.50905V19.5003L17.5 19.0006H4.49964C3.67 19.0006 3 18.3325 3 17.504V0.511381L2.5 1.01109H11.5C11.7761 1.01109 12 0.787363 12 0.511381C12 0.2354 11.7761 0.0116732 11.5 0.0116732H2.5H2V0.511381V17.504C2 18.885 3.11822 20 4.49964 20H17.5H18V19.5003V4.50905V4.00934H17.5H13.5L14 4.50905V2.51021V1.5108V0.511381C14 0.777613 13.7841 0.994419 13.5209 0.999356C13.4318 1.00103 13.3803 0.985078 13.3306 0.961547C13.3254 0.959056 13.3466 0.97259 13.3795 0.996294C13.4723 1.06313 13.6161 1.17861 13.8025 1.33582C14.1408 1.62127 14.6058 2.03267 15.1643 2.53831C15.2119 2.58141 15.2119 2.58141 15.2595 2.62454C15.6812 3.00711 16.1277 3.41727 16.5706 3.82747C16.7256 3.97106 16.8691 4.10439 16.9975 4.22402C17.0744 4.29573 17.1293 4.34699 17.1582 4.37405C17.3597 4.56271 17.6762 4.55237 17.8649 4.35094C18.0537 4.14952 18.0433 3.83329 17.8418 3.64463C17.8121 3.61685 17.7569 3.56529 17.6794 3.49305ZM2 9.00642H0V17.5015H10H20V9.00642H3V8.99475H2V9.00642ZM4.06641 13.8867V16H3.07812V10.3125H5.25391C5.88933 10.3125 6.39388 10.4779 6.76758 10.8086C7.14128 11.1393 7.32812 11.5768 7.32812 12.1211C7.32812 12.6784 7.14518 13.112 6.7793 13.4219C6.41341 13.7318 5.90104 13.8867 5.24219 13.8867H4.06641ZM4.06641 13.0938H5.25391C5.60547 13.0938 5.8737 13.0111 6.05859 12.8457C6.24349 12.6803 6.33594 12.4414 6.33594 12.1289C6.33594 11.8216 6.24219 11.5762 6.05469 11.3926C5.86719 11.209 5.60938 11.1146 5.28125 11.1094H4.06641V13.0938ZM8.19141 16V10.3125H9.87109C10.3737 10.3125 10.8197 10.4245 11.209 10.6484C11.5983 10.8724 11.8997 11.1901 12.1133 11.6016C12.3268 12.013 12.4336 12.4844 12.4336 13.0156V13.3008C12.4336 13.8398 12.3262 14.3138 12.1113 14.7227C11.8965 15.1315 11.5905 15.4466 11.1934 15.668C10.7962 15.8893 10.3411 16 9.82812 16H8.19141ZM9.17969 11.1094V15.2109H9.82422C10.3425 15.2109 10.7402 15.0488 11.0176 14.7246C11.2949 14.4004 11.4362 13.9349 11.4414 13.3281V13.0117C11.4414 12.3945 11.3073 11.9232 11.0391 11.5977C10.7708 11.2721 10.3815 11.1094 9.87109 11.1094H9.17969ZM16.6953 13.5898H14.4062V16H13.418V10.3125H17.0312V11.1094H14.4062V12.8008H16.6953V13.5898Z" fill="#D81E06"/>
</g>
<defs>
<clipPath id="clip0_63_1376">
<rect width="20" height="20" fill="white"/>
</clipPath>
</defs>
</svg>
