<svg width="16" height="16" viewBox="0 0 16 16" fill="none" xmlns="http://www.w3.org/2000/svg">
<path d="M14.8574 3.68197V15.9999H1.49353V0H11.1755L12.8904 1.71497L14.8574 3.68197Z" fill="#B12A27"/>
<path d="M7.55198 1.07129H1.1427V3.93904H7.55198V1.07129Z" fill="#F2F2F2"/>
<path d="M3.44179 2.01171C3.41351 1.9434 3.37582 1.88215 3.32401 1.83034C3.2722 1.77852 3.20857 1.73612 3.13554 1.70784C3.06016 1.67721 2.97535 1.66309 2.88113 1.66309H2.17676V3.48168H2.53248V2.79615H2.88113C2.97535 2.79615 3.06016 2.78202 3.13554 2.7514C3.20857 2.72312 3.27216 2.68074 3.32401 2.6289C3.37585 2.57709 3.41354 2.51818 3.44179 2.44752C3.4677 2.37921 3.48185 2.30618 3.48185 2.2308C3.48182 2.15305 3.4677 2.08002 3.44179 2.01171ZM3.05779 2.4098C3.01066 2.45455 2.94473 2.47812 2.86463 2.47812H2.53248V1.97871H2.86463C2.94473 1.97871 3.0107 2.00227 3.05779 2.04937C3.10254 2.09412 3.1261 2.15537 3.1261 2.23074C3.12613 2.3038 3.10257 2.36505 3.05779 2.4098Z" fill="#B12A27"/>
<path d="M5.14253 2.36743C5.14018 2.30384 5.13781 2.2473 5.13075 2.19546C5.12368 2.14362 5.1119 2.09652 5.0954 2.05177C5.0789 2.00937 5.05771 1.96696 5.02943 1.92927C4.96584 1.8374 4.88809 1.76909 4.80093 1.72668C4.7114 1.68427 4.6054 1.66309 4.48056 1.66309H3.82568V3.48168H4.48056C4.6054 3.48168 4.7114 3.46049 4.80093 3.41809C4.88809 3.37568 4.96584 3.30737 5.02943 3.21549C5.05771 3.1778 5.0789 3.1354 5.0954 3.09299C5.1119 3.04824 5.12368 3.00112 5.13075 2.9493C5.13781 2.89749 5.14015 2.84093 5.14253 2.77734C5.14487 2.71609 5.14487 2.64777 5.14487 2.5724C5.14487 2.49702 5.14487 2.42868 5.14253 2.36743ZM4.78681 2.75615C4.78681 2.81034 4.78209 2.85274 4.77737 2.89043C4.77265 2.92577 4.76559 2.95874 4.75618 2.9823C4.74678 3.00821 4.73262 3.03177 4.71615 3.05296C4.65725 3.12834 4.56775 3.16368 4.44996 3.16368H4.17906V1.97874H4.44996C4.56775 1.97874 4.65728 2.01643 4.71615 2.0918C4.73265 2.11299 4.74678 2.13421 4.75618 2.16012C4.76559 2.18602 4.77268 2.21665 4.77737 2.25434C4.78209 2.28968 4.78681 2.33443 4.78681 2.38624C4.78915 2.43809 4.78915 2.50168 4.78915 2.57234C4.78918 2.64305 4.78918 2.7043 4.78681 2.75615Z" fill="#B12A27"/>
<path d="M6.66195 1.97874V1.66309H5.46289V3.48168H5.81861V2.74437H6.53711V2.42634H5.81861V1.97874H6.66195Z" fill="#B12A27"/>
<path d="M3.44179 2.01171C3.41351 1.9434 3.37582 1.88215 3.32401 1.83034C3.2722 1.77852 3.20857 1.73612 3.13554 1.70784C3.06016 1.67721 2.97535 1.66309 2.88113 1.66309H2.17676V3.48168H2.53248V2.79615H2.88113C2.97535 2.79615 3.06016 2.78202 3.13554 2.7514C3.20857 2.72312 3.27216 2.68074 3.32401 2.6289C3.37585 2.57709 3.41354 2.51818 3.44179 2.44752C3.4677 2.37921 3.48185 2.30618 3.48185 2.2308C3.48182 2.15305 3.4677 2.08002 3.44179 2.01171ZM3.05779 2.4098C3.01066 2.45455 2.94473 2.47812 2.86463 2.47812H2.53248V1.97871H2.86463C2.94473 1.97871 3.0107 2.00227 3.05779 2.04937C3.10254 2.09412 3.1261 2.15537 3.1261 2.23074C3.12613 2.3038 3.10257 2.36505 3.05779 2.4098Z" fill="#B12A27"/>
<path opacity="0.08" d="M14.8574 3.68184V15.9998H1.49353V13.1117L7.74084 6.86441L8.11069 6.49456L8.31562 6.28959L8.65722 5.94803L9.06241 5.54284L12.8904 1.71484L14.8574 3.68184Z" fill="#040000"/>
<path d="M14.8574 3.68237H11.175V0L14.8574 3.68237Z" fill="#771B1B"/>
<path d="M12.9494 11.5831C12.8716 11.4465 12.7656 11.3169 12.6337 11.1992C12.5254 11.1002 12.3982 11.0084 12.2544 10.9235C11.6749 10.582 10.8481 10.4171 9.7244 10.4171H9.61134C9.55009 10.3605 9.4865 10.304 9.42053 10.2451C8.99415 9.86113 8.65493 9.44416 8.39109 8.9801C8.90934 7.83757 9.15668 6.81991 9.12606 5.95301C9.12134 5.80695 9.10015 5.67032 9.06246 5.5431C9.00593 5.33816 8.91172 5.15676 8.77978 5.00835C8.77743 5.00601 8.77743 5.00601 8.77506 5.00363C8.5654 4.76807 8.27331 4.63379 7.97646 4.63379C7.67728 4.63379 7.40168 4.76335 7.20143 5.00129C7.00356 5.23685 6.89756 5.5596 6.89284 5.93885C6.88578 6.51835 6.93287 7.06723 7.03184 7.5737C7.04125 7.61376 7.04834 7.65379 7.05775 7.69382C7.15668 8.15319 7.30275 8.58898 7.49118 8.99416C7.26975 9.4441 7.04596 9.83279 6.89046 10.0966C6.77268 10.2969 6.64312 10.5065 6.50884 10.7162C5.90343 10.8246 5.38987 10.9565 4.94231 11.1214C4.3369 11.3405 3.85162 11.6231 3.50296 11.96C3.27681 12.1767 3.12368 12.4076 3.04831 12.6479C2.96821 12.8952 2.97293 13.1426 3.06243 13.364C3.14487 13.5689 3.29328 13.7409 3.49118 13.8587C3.53831 13.887 3.58778 13.9105 3.63959 13.9317C3.79037 13.993 3.95525 14.0259 4.12721 14.0259C4.52534 14.0259 4.93521 13.854 5.2815 13.5454C5.92696 12.9682 6.59362 12.0401 6.98703 11.4535C7.30975 11.404 7.66075 11.3616 8.05653 11.3192C8.52296 11.2721 8.93521 11.2439 9.30978 11.2297C9.42521 11.3334 9.53593 11.4323 9.64193 11.5265C10.2309 12.0518 10.6784 12.4311 11.0836 12.6973C11.0836 12.6996 11.086 12.6996 11.0883 12.6996C11.2485 12.8056 11.4017 12.8928 11.5548 12.9635C11.7267 13.0436 11.9011 13.086 12.0801 13.086C12.3062 13.086 12.5182 13.0177 12.6949 12.8928C12.874 12.7633 13.0035 12.5772 13.0624 12.3675C13.1307 12.1155 13.0907 11.8352 12.9494 11.5831ZM7.7409 6.86466C7.70793 6.57254 7.69378 6.26866 7.6985 5.94829C7.70322 5.64441 7.81393 5.43945 7.97646 5.43945C8.09896 5.43945 8.22853 5.55016 8.2874 5.76216C8.3039 5.82576 8.31568 5.89879 8.31803 5.98123C8.32275 6.08016 8.32037 6.18382 8.31568 6.28982C8.30156 6.58901 8.24971 6.90701 8.16021 7.2486C8.10603 7.4677 8.03537 7.6962 7.94822 7.9341C7.84928 7.59963 7.77859 7.24391 7.7409 6.86466ZM3.81159 13.0649C3.77153 12.9659 3.81631 12.7751 4.06131 12.5395C4.43587 12.1815 5.02243 11.8988 5.83987 11.6844C5.6844 11.8964 5.53128 12.0896 5.38287 12.2663C5.15671 12.5395 4.94 12.7704 4.74446 12.9447C4.57721 13.0954 4.39346 13.1897 4.21915 13.2133C4.18853 13.218 4.1579 13.2203 4.12728 13.2203C3.97412 13.2204 3.84928 13.1591 3.81159 13.0649ZM7.576 10.5608L7.5925 10.5349L7.56659 10.5396C7.57131 10.5278 7.57837 10.516 7.58543 10.5066C7.68437 10.3394 7.80921 10.125 7.9435 9.87763L7.95528 9.90354L7.9859 9.83995C8.08484 9.98129 8.19321 10.1203 8.30628 10.2545C8.36046 10.3181 8.417 10.3794 8.47353 10.4406L8.43584 10.443L8.46881 10.4736C8.37221 10.4807 8.27093 10.4901 8.16962 10.4995C8.10603 10.5066 8.04006 10.5113 7.97409 10.5184C7.8375 10.5325 7.70321 10.5466 7.576 10.5608ZM11.5407 12.0307C11.2603 11.8517 10.947 11.5996 10.5607 11.2627C11.1096 11.3193 11.5407 11.4394 11.8469 11.6184C11.9812 11.6962 12.0825 11.7763 12.1508 11.854C12.2638 11.9741 12.3039 12.0825 12.2827 12.1555C12.2638 12.2286 12.1814 12.278 12.0801 12.278C12.0212 12.278 11.96 12.2639 11.8963 12.2333C11.788 12.1815 11.6749 12.1179 11.5548 12.0401C11.5501 12.0401 11.5454 12.0354 11.5407 12.0307Z" fill="#F2F2F2"/>
</svg>
