<svg width="30" height="30" viewBox="0 0 30 30" fill="none" xmlns="http://www.w3.org/2000/svg">
<path fill-rule="evenodd" clip-rule="evenodd" d="M15 30C23.2843 30 30 23.2843 30 15C30 6.71573 23.2843 0 15 0C6.71573 0 0 6.71573 0 15C0 23.2843 6.71573 30 15 30ZM19.9229 14.2352L15.991 10.4301V21.2359C15.991 21.7826 15.5478 22.2258 15.001 22.2258C14.4543 22.2258 14.0111 21.7826 14.0111 21.2359V10.4281L10.0771 14.2352C9.69959 14.6005 9.10041 14.6005 8.72295 14.2352C8.32757 13.8526 8.32757 13.2186 8.72294 12.836L14.3116 7.42762C14.6954 7.05619 15.3046 7.05619 15.6884 7.42762L21.2771 12.836C21.6724 13.2186 21.6724 13.8526 21.2771 14.2352C20.8996 14.6005 20.3004 14.6005 19.9229 14.2352Z" fill="#333333"/>
</svg>
