<svg width="16" height="16" viewBox="0 0 16 16" fill="none" xmlns="http://www.w3.org/2000/svg">
<g clip-path="url(#clip0_682_1024)">
<path d="M4 0C3.45 0 3 0.45 3 1V15C3 15.55 3.45 16 4 16H14C14.55 16 15 15.55 15 15V4L11 0H4Z" fill="white"/>
<path d="M12 4H15L11 0V3C11 3.55 11.45 4 12 4Z" fill="#B0B7BD"/>
<path d="M15 7L12 4H15V7Z" fill="#CAD1D8"/>
<path d="M13 13C13 13.275 12.775 13.5 12.5 13.5H1.5C1.225 13.5 1 13.275 1 13V8C1 7.725 1.225 7.5 1.5 7.5H12.5C12.775 7.5 13 7.725 13 8V13Z" fill="#576D7E"/>
<path d="M4.14946 9.73318H3.44996C3.10196 9.73318 3.10196 9.22168 3.44996 9.22168H5.34096C5.69696 9.22168 5.69696 9.73318 5.34096 9.73318H4.67696V11.7517C4.67696 12.0992 4.14896 12.1077 4.14896 11.7517V9.73318H4.14946Z" fill="white"/>
<path d="M7.01306 10.1928L7.70906 9.32132C7.91706 9.04982 8.32056 9.39732 8.09306 9.65732C7.85306 9.94132 7.60156 10.2493 7.36106 10.5643L8.17706 11.5798C8.39656 11.8798 7.95706 12.1678 7.74106 11.8718L7.00556 10.9283L6.28206 11.8918C6.07806 12.1833 5.62606 11.8558 5.85456 11.5838L6.65756 10.5643C6.40606 10.2488 6.16206 9.94132 5.91806 9.65732C5.66606 9.35732 6.13406 9.04982 6.31756 9.32982L7.01306 10.1928Z" fill="white"/>
<path d="M9.32145 9.73318H8.62245C8.27445 9.73318 8.27445 9.22168 8.62245 9.22168H10.5129C10.8689 9.22168 10.8689 9.73318 10.5129 9.73318H9.84945V11.7517C9.84945 12.0992 9.32145 12.1077 9.32145 11.7517V9.73318Z" fill="white"/>
<path d="M12.5 13.5H3V14H12.5C12.775 14 13 13.775 13 13.5V13C13 13.275 12.775 13.5 12.5 13.5Z" fill="#CAD1D8"/>
</g>
<defs>
<clipPath id="clip0_682_1024">
<rect width="16" height="16" fill="white"/>
</clipPath>
</defs>
</svg>
