<svg width="28" height="28" viewBox="0 0 28 28" fill="none" xmlns="http://www.w3.org/2000/svg">
<path d="M9.18137 24.698C8.44011 25.4393 7.23599 25.4393 6.49473 24.698L3.80462 22.0079C3.06336 21.2666 3.06336 20.0625 3.80462 19.3212L7.28124 15.8446L10.5456 12.5768C9.08741 11.7172 7.18727 11.9017 5.93444 13.1545L1.1145 17.9744C-0.3715 19.4604 -0.3715 21.8652 1.1145 23.3512L5.14793 27.3846C6.63394 28.8706 9.04216 28.8706 10.5247 27.3846L15.3446 22.5647C16.5975 21.3119 16.7784 19.4117 15.9223 17.9536L9.18137 24.698ZM26.8881 5.64794L22.8547 1.6145C21.3687 0.128499 18.9604 0.128499 17.4779 1.6145L12.6545 6.43444C11.4052 7.68379 11.2207 9.58741 12.0768 11.0456L18.8178 4.30462C19.559 3.56336 20.7631 3.56336 21.5044 4.30462L24.1945 6.99473C24.9358 7.736 24.9358 8.94011 24.1945 9.68137L17.457 16.4223C18.9152 17.2784 20.8153 17.0975 22.0682 15.8446L26.8881 11.0247C28.3706 9.53869 28.3706 7.13046 26.8881 5.64794ZM8.8438 18.9837L9.51546 19.6553C10.0723 20.2121 10.9736 20.2121 11.5304 19.6553L19.1553 12.0304C19.7121 11.4736 19.7121 10.5688 19.1553 10.0155L18.4837 9.3438C17.9269 8.78699 17.0255 8.78699 16.4687 9.3438L8.8438 16.9687C8.28698 17.5255 8.28698 18.4269 8.8438 18.9837Z" fill="url(#paint0_linear_682_758)"/>
<defs>
<linearGradient id="paint0_linear_682_758" x1="26.3692" y1="0.5" x2="3.15556" y2="30.9081" gradientUnits="userSpaceOnUse">
<stop stop-color="#F505F7"/>
<stop offset="1" stop-color="#FF884C"/>
</linearGradient>
</defs>
</svg>
