<svg xmlns="http://www.w3.org/2000/svg" width="66" height="66" viewBox="0 0 66 66" fill="none">
  <rect width="66" height="66" rx="33" fill="#EBEBEB"/>
  <path d="M22.9995 47.9869C21.4082 47.9869 19.8821 47.2969 18.7569 46.0686C17.6317 44.8403 16.9995 43.1744 16.9995 41.4373V37.0943C16.9995 36.5153 17.2102 35.96 17.5853 35.5506C17.9604 35.1411 18.4691 34.9111 18.9995 34.9111C19.5299 34.9111 20.0387 35.1411 20.4137 35.5506C20.7888 35.96 20.9995 36.5153 20.9995 37.0943V41.4504C20.9995 42.0294 21.2102 42.5847 21.5853 42.9942C21.771 43.1969 21.9915 43.3577 22.2341 43.4674C22.4768 43.5771 22.7369 43.6336 22.9995 43.6336H42.9995C43.5299 43.6336 44.0387 43.4036 44.4137 42.9942C44.7888 42.5847 44.9995 42.0294 44.9995 41.4504V37.1074C44.9995 36.5284 45.2102 35.9731 45.5853 35.5637C45.9604 35.1542 46.4691 34.9242 46.9995 34.9242C47.5299 34.9242 48.0387 35.1542 48.4137 35.5637C48.7888 35.9731 48.9995 36.5284 48.9995 37.1074V41.4504C48.9995 43.1875 48.3674 44.8534 47.2422 46.0817C46.1169 47.31 44.5908 48 42.9995 48L22.9995 47.9869ZM30.9995 37.813V25.4519L28.4135 28.2726C28.034 28.6544 27.534 28.8613 27.018 28.85C26.502 28.8388 26.01 28.6102 25.6448 28.2121C25.2796 27.814 25.0696 27.2773 25.0585 26.714C25.0474 26.1508 25.2363 25.6047 25.5855 25.1899L31.5855 18.6403C31.7713 18.4373 31.9918 18.2763 32.2346 18.1664C32.4774 18.0566 32.7377 18 33.0005 18C33.2633 18 33.5236 18.0566 33.7664 18.1664C34.0092 18.2763 34.2298 18.4373 34.4155 18.6403L39.9495 24.6747C40.1501 24.8735 40.3116 25.1147 40.4242 25.3837C40.5367 25.6527 40.5981 25.9439 40.6045 26.2395C40.6108 26.5352 40.5621 26.8292 40.4613 27.1037C40.3604 27.3782 40.2095 27.6274 40.0177 27.8364C39.826 28.0453 39.5973 28.2094 39.3456 28.319C39.0939 28.4285 38.8245 28.481 38.5537 28.4734C38.2828 28.4658 38.0162 28.3983 37.77 28.2748C37.5239 28.1513 37.3032 27.9745 37.1215 27.7552L34.9995 25.4563V37.813C34.9995 38.0997 34.9478 38.3836 34.8473 38.6485C34.7468 38.9133 34.5994 39.154 34.4137 39.3567C34.228 39.5595 34.0075 39.7203 33.7649 39.83C33.5222 39.9397 33.2622 39.9962 32.9995 39.9962C32.7369 39.9962 32.4768 39.9397 32.2341 39.83C31.9915 39.7203 31.771 39.5595 31.5853 39.3567C31.3996 39.154 31.2523 38.9133 31.1518 38.6485C31.0512 38.3836 30.9995 38.0997 30.9995 37.813Z" fill="#31394C"/>
</svg>