<svg width="20" height="20" viewBox="0 0 20 20" fill="none" xmlns="http://www.w3.org/2000/svg">
<path d="M0.131836 9.99529C0.131836 11.2917 0.387176 12.5753 0.883278 13.773C1.37938 14.9707 2.10653 16.059 3.02321 16.9757C3.93988 17.8923 5.02814 18.6195 6.22583 19.1156C7.42353 19.6117 8.70721 19.867 10.0036 19.867C11.3 19.867 12.5836 19.6117 13.7813 19.1156C14.979 18.6195 16.0673 17.8923 16.984 16.9757C17.9006 16.059 18.6278 14.9707 19.1239 13.773C19.62 12.5753 19.8753 11.2917 19.8753 9.99529C19.8753 8.69891 19.62 7.41523 19.1239 6.21753C18.6278 5.01983 17.9006 3.93158 16.984 3.0149C16.0673 2.09823 14.979 1.37108 13.7813 0.874978C12.5836 0.378876 11.3 0.123535 10.0036 0.123535C8.70721 0.123535 7.42353 0.378876 6.22583 0.874978C5.02814 1.37108 3.93988 2.09823 3.02321 3.0149C2.10653 3.93158 1.37938 5.01983 0.883278 6.21753C0.387176 7.41523 0.131836 8.69891 0.131836 9.99529Z" fill="#3FA6FC"/>
<path d="M7.30359 5.02874V14.9623C7.30359 14.9859 7.32914 15.0004 7.34939 14.9888L15.9524 10.0218C15.9726 10.0102 15.9726 9.98081 15.9524 9.96876L7.34939 5.00222C7.34473 4.99961 7.33947 4.99826 7.33413 4.99829C7.32879 4.99833 7.32356 4.99975 7.31893 5.00243C7.31431 5.00511 7.31047 5.00894 7.30778 5.01355C7.30509 5.01816 7.30364 5.0234 7.30359 5.02874Z" fill="white"/>
</svg>
