<svg width="32" height="33" viewBox="0 0 32 33" fill="none" xmlns="http://www.w3.org/2000/svg">
<g clip-path="url(#clip0_682_885)">
<path d="M31.2253 11.5303C28.9908 4.83729 22.8143 0.5 16 0.5C9.16468 0.5 3.03555 4.83199 0.801033 11.4987C0.310924 11.9836 0 12.6581 0 13.4012V19.5936C0 20.3104 0.289892 20.9691 0.753588 21.454C3.16729 28.2049 9.15408 32.5001 16 32.5001C22.8352 32.5001 29.0223 28.1101 31.1989 21.5014C31.689 21.0166 31.9999 20.342 31.9999 19.5989V13.4065C32 12.6687 31.7049 12.0099 31.2253 11.5303ZM28.9961 10.7345H23.4836C23.2781 9.63835 23.0198 8.60539 22.7142 7.6515C24.0106 7.48813 25.3071 7.27732 26.6088 7.02965C27.5784 8.12058 28.39 9.36427 28.9961 10.7345ZM25.033 5.5224C24.0528 5.69106 23.0672 5.83332 22.0764 5.94403C21.581 4.77932 20.9908 3.77799 20.3425 2.95584C22.0659 3.50921 23.6522 4.38403 25.033 5.5224ZM16.8907 2.4394C18.1238 2.87155 19.2832 4.18911 20.2056 6.12851C19.1041 6.2181 17.9921 6.26555 16.8907 6.28658V2.4394ZM16.8802 8.06262H16.8854C18.2293 8.0415 19.5626 7.96772 20.896 7.8465C21.1964 8.72661 21.4652 9.69631 21.6707 10.7293H16.8749V8.06262H16.8802ZM15.1093 2.4394V6.28658C14.0079 6.26547 12.8959 6.2181 11.7944 6.12851C12.7167 4.18911 13.8762 2.87685 15.1093 2.4394ZM15.1041 8.06262V10.7346H10.3189C10.5244 9.70161 10.7932 8.73191 11.0936 7.8518C12.4269 7.97302 13.7707 8.0468 15.1041 8.06262ZM11.6522 2.95584C11.0039 3.77269 10.4242 4.77403 9.91827 5.94403C8.93805 5.8281 7.94724 5.69106 6.96172 5.5224C8.34783 4.38403 9.93417 3.50921 11.6522 2.95584ZM5.39128 7.02965C6.68242 7.28261 7.97887 7.49343 9.2859 7.6515C8.97498 8.60009 8.72724 9.62775 8.5165 10.7345H3.004C3.61003 9.36427 4.42158 8.12058 5.39128 7.02965ZM3.00392 22.2655H8.51642C8.72194 23.3617 8.9802 24.3946 9.28582 25.338C7.98938 25.5014 6.69294 25.7122 5.3912 25.9598C4.42158 24.8795 3.61003 23.6357 3.00392 22.2655ZM6.9671 27.4776C7.94732 27.3089 8.93283 27.1667 9.92365 27.056C10.4296 28.2207 11.0093 29.222 11.6575 30.0442C9.93417 29.4908 8.34783 28.616 6.9671 27.4776ZM15.1093 30.5606C13.8762 30.1285 12.7167 28.8109 11.7944 26.8715C12.8959 26.7819 14.0079 26.7345 15.1093 26.7134V30.5606ZM15.1199 24.9375H15.1146C13.7707 24.9586 12.4375 25.0324 11.1041 25.1535C10.8037 24.2734 10.5349 23.3037 10.3294 22.2707H15.1251V24.9374L15.1199 24.9375ZM16.8907 30.5606V26.7134C17.9921 26.7345 19.1041 26.7819 20.2056 26.8715C19.2832 28.811 18.1238 30.1232 16.8907 30.5606ZM16.896 24.9375V22.2655H21.6812C21.4757 23.2985 21.2069 24.2682 20.9065 25.1483C19.5731 25.0271 18.2293 24.9533 16.896 24.9375ZM20.3478 30.0442C20.9961 29.2273 21.5758 28.226 22.0817 27.056C23.0619 27.1719 24.0528 27.3089 25.0383 27.4776C23.6522 28.616 22.0659 29.4908 20.3478 30.0442ZM26.6087 25.9703C25.3176 25.7174 24.0211 25.5066 22.7141 25.3485C23.025 24.3999 23.2728 23.3722 23.4835 22.2655H28.996C28.39 23.6357 27.5784 24.8795 26.6087 25.9703ZM29.3333 20.4895H2.66666C2.17655 20.4895 1.77603 20.0943 1.77603 19.5988V13.4065C1.77603 12.9163 2.17125 12.5158 2.66666 12.5158H29.3333C29.8234 12.5158 30.224 12.911 30.224 13.4065V19.5988H30.2293C30.224 20.089 29.8287 20.4895 29.3333 20.4895Z" fill="url(#paint0_linear_682_885)"/>
<path d="M9.84457 16.9744L8.95917 14.2129H7.7312L6.84058 16.9744L5.94995 14.2129H4.6377L6.1871 18.7821H7.50465L8.34783 16.2945L9.1858 18.7821H10.5086L12.058 14.2129H10.7352L9.84457 16.9744Z" fill="url(#paint1_linear_682_885)"/>
<path d="M17.4914 16.9793L16.606 14.2178H15.3781L14.4874 16.9793L13.6021 14.2178H12.2845L13.834 18.7817H15.1515L16 16.2994L16.8326 18.7869H18.1554L19.7048 14.2178H18.3821L17.4914 16.9793Z" fill="url(#paint2_linear_682_885)"/>
<path d="M25.1489 16.9744L24.2582 14.2129H23.0303L22.1396 16.9744L21.2542 14.2129H19.9368L21.4862 18.7821H22.8036L23.6469 16.2945L24.4848 18.7821H25.8076L27.357 14.2129H26.0343L25.1489 16.9744Z" fill="url(#paint3_linear_682_885)"/>
</g>
<defs>
<linearGradient id="paint0_linear_682_885" x1="23.6363" y1="2.68182" x2="9.45441" y2="30.6818" gradientUnits="userSpaceOnUse">
<stop stop-color="#18B0E0"/>
<stop offset="1" stop-color="#93C7CD"/>
</linearGradient>
<linearGradient id="paint1_linear_682_885" x1="10.1186" y1="14.5244" x2="8.69066" y2="19.1028" gradientUnits="userSpaceOnUse">
<stop stop-color="#18B0E0"/>
<stop offset="1" stop-color="#93C7CD"/>
</linearGradient>
<linearGradient id="paint2_linear_682_885" x1="17.7654" y1="14.5293" x2="16.3376" y2="19.1076" gradientUnits="userSpaceOnUse">
<stop stop-color="#18B0E0"/>
<stop offset="1" stop-color="#93C7CD"/>
</linearGradient>
<linearGradient id="paint3_linear_682_885" x1="25.4177" y1="14.5244" x2="23.9897" y2="19.1028" gradientUnits="userSpaceOnUse">
<stop stop-color="#18B0E0"/>
<stop offset="1" stop-color="#93C7CD"/>
</linearGradient>
<clipPath id="clip0_682_885">
<rect width="31.9999" height="32.0001" fill="white" transform="translate(0 0.5)"/>
</clipPath>
</defs>
</svg>
