<svg width="18" height="17" viewBox="0 0 18 17" fill="none" xmlns="http://www.w3.org/2000/svg">
<path d="M8.99996 7.16667C8.08329 7.16667 7.33329 7.91667 7.33329 8.83333C7.33329 9.75 8.08329 10.5 8.99996 10.5C9.91663 10.5 10.6666 9.75 10.6666 8.83333C10.6666 7.91667 9.91663 7.16667 8.99996 7.16667ZM14 8.83333C14 6.075 11.7583 3.83333 8.99996 3.83333C6.24163 3.83333 3.99996 6.075 3.99996 8.83333C3.99996 10.6833 5.00829 12.2917 6.49996 13.1583L7.33329 11.7083C6.34163 11.125 5.66663 10.0667 5.66663 8.83333C5.66663 6.99167 7.15829 5.5 8.99996 5.5C10.8416 5.5 12.3333 6.99167 12.3333 8.83333C12.3333 10.0667 11.6583 11.125 10.6666 11.7083L11.5 13.1583C12.9916 12.2917 14 10.6833 14 8.83333ZM8.99996 0.5C4.39996 0.5 0.666626 4.23333 0.666626 8.83333C0.666626 11.9167 2.34163 14.6 4.82496 16.0417L5.65829 14.6C3.67496 13.4417 2.33329 11.3 2.33329 8.83333C2.33329 5.15 5.31663 2.16667 8.99996 2.16667C12.6833 2.16667 15.6666 5.15 15.6666 8.83333C15.6666 11.3 14.325 13.4417 12.3333 14.6L13.1666 16.0417C15.6583 14.6 17.3333 11.9167 17.3333 8.83333C17.3333 4.23333 13.6 0.5 8.99996 0.5Z" fill="#3FA6FC"/>
</svg>
