<svg width="20" height="20" viewBox="0 0 20 20" fill="none" xmlns="http://www.w3.org/2000/svg">
<g clip-path="url(#clip0_63_1360)">
<path d="M6.58964 6.67627C6.24282 6.67627 5.896 6.90748 5.896 7.2543C5.896 7.60112 6.24282 7.83234 6.58964 7.83234C6.93646 7.83234 7.16767 7.60113 7.16767 7.2543C7.16767 6.89303 6.93646 6.67627 6.58964 6.67627ZM11.2862 10.0289C11.055 10.0289 10.8382 10.2745 10.8382 10.4913C10.8382 10.737 11.0694 10.9537 11.2862 10.9537C11.633 10.9537 11.8642 10.7225 11.8642 10.4913C11.8642 10.2601 11.633 10.0289 11.2862 10.0289ZM9.79773 7.83234C10.1446 7.83234 10.3758 7.58667 10.3758 7.2543C10.3758 6.90748 10.1446 6.67627 9.79773 6.67627C9.45091 6.67627 9.10409 6.90748 9.10409 7.2543C9.10409 7.60112 9.45091 7.83234 9.79773 7.83234ZM13.8006 10.0289C13.5694 10.0289 13.3526 10.2745 13.3526 10.4913C13.3526 10.737 13.5839 10.9537 13.8006 10.9537C14.1474 10.9537 14.3787 10.7225 14.3787 10.4913C14.3787 10.2601 14.1474 10.0289 13.8006 10.0289Z" fill="#28C445"/>
<path d="M9.9711 0.0578613C4.46532 0.0578613 0 4.52318 0 10.029C0 15.5347 4.46532 20.0001 9.9711 20.0001C15.4769 20.0001 19.9422 15.5347 19.9422 10.029C19.9422 4.52318 15.4769 0.0578613 9.9711 0.0578613ZM8.07803 12.5868C7.5 12.5868 7.03757 12.4712 6.48844 12.3411L4.89884 13.1503L5.34682 11.7486C4.2052 10.9394 3.51156 9.88445 3.51156 8.62722C3.51156 6.41624 5.57803 4.68214 8.07803 4.68214C10.3179 4.68214 12.2977 6.06942 12.6879 7.93358C12.5434 7.91913 12.3988 7.90468 12.2543 7.90468C10.0867 7.93358 8.3815 9.56653 8.3815 11.5897C8.3815 11.922 8.43931 12.2399 8.52601 12.5579C8.3815 12.5723 8.22254 12.5868 8.07803 12.5868ZM14.841 14.2053L15.1879 15.3613L13.9451 14.6677C13.4971 14.7833 13.0347 14.8989 12.5723 14.8989C10.3902 14.8989 8.67052 13.396 8.67052 11.5318C8.65607 9.68214 10.3757 8.17925 12.5434 8.17925C14.6098 8.17925 16.4306 9.69659 16.4306 11.5463C16.4306 12.5868 15.7514 13.5116 14.841 14.2053Z" fill="#28C445"/>
</g>
<defs>
<clipPath id="clip0_63_1360">
<rect width="20" height="20" fill="white"/>
</clipPath>
</defs>
</svg>
