<svg width="63" height="63" viewBox="0 0 63 63" fill="none" xmlns="http://www.w3.org/2000/svg">
<path d="M45.3025 12.9186C52.3438 9.16156 57.5394 7.67269 58.8839 9.4298C61.2548 12.5281 50.754 24.5459 35.4297 36.2721C20.1054 47.9984 5.76059 54.9927 3.38972 51.8943C2.01178 50.0936 4.9817 45.2801 10.7195 39.2619" stroke="black" stroke-width="1.5" stroke-linecap="round"/>
<circle cx="30.0967" cy="28.8198" r="22" fill="url(#paint0_linear_252_58)"/>
<path d="M46.0965 12.5004C52.7327 9.05315 57.5902 7.73943 58.8837 9.42981C61.2546 12.5282 50.7538 24.5459 35.4295 36.2721C20.1052 47.9984 5.76038 54.9927 3.3895 51.8944C2.06233 50.16 4.76857 45.6306 10.0965 39.9221" stroke="black" stroke-width="1.5" stroke-linecap="round"/>
<defs>
<linearGradient id="paint0_linear_252_58" x1="40.5967" y1="9.81976" x2="21.0967" y2="48.3198" gradientUnits="userSpaceOnUse">
<stop stop-color="#18B0E0"/>
<stop offset="1" stop-color="#93C7CD"/>
</linearGradient>
</defs>
</svg>
