<svg width="20" height="20" viewBox="0 0 20 20" fill="none" xmlns="http://www.w3.org/2000/svg">
<path d="M9.99996 9.16667C9.08329 9.16667 8.33329 9.91667 8.33329 10.8333C8.33329 11.75 9.08329 12.5 9.99996 12.5C10.9166 12.5 11.6666 11.75 11.6666 10.8333C11.6666 9.91667 10.9166 9.16667 9.99996 9.16667ZM15 10.8333C15 8.075 12.7583 5.83333 9.99996 5.83333C7.24163 5.83333 4.99996 8.075 4.99996 10.8333C4.99996 12.6833 6.00829 14.2917 7.49996 15.1583L8.33329 13.7083C7.34163 13.125 6.66663 12.0667 6.66663 10.8333C6.66663 8.99167 8.15829 7.5 9.99996 7.5C11.8416 7.5 13.3333 8.99167 13.3333 10.8333C13.3333 12.0667 12.6583 13.125 11.6666 13.7083L12.5 15.1583C13.9916 14.2917 15 12.6833 15 10.8333ZM9.99996 2.5C5.39996 2.5 1.66663 6.23333 1.66663 10.8333C1.66663 13.9167 3.34163 16.6 5.82496 18.0417L6.65829 16.6C4.67496 15.4417 3.33329 13.3 3.33329 10.8333C3.33329 7.15 6.31663 4.16667 9.99996 4.16667C13.6833 4.16667 16.6666 7.15 16.6666 10.8333C16.6666 13.3 15.325 15.4417 13.3333 16.6L14.1666 18.0417C16.6583 16.6 18.3333 13.9167 18.3333 10.8333C18.3333 6.23333 14.6 2.5 9.99996 2.5Z" fill="#D81E06"/>
</svg>
