<svg width="20" height="20" viewBox="0 0 20 20" fill="none" xmlns="http://www.w3.org/2000/svg">
<path d="M9.86667 8.13333C9.93333 8.13333 10.0667 8.13333 10.0667 8.06667C10.1333 8 10.1333 7.93333 10.1333 7.86667V6C10.1333 5.93333 10.1333 5.86667 10.0667 5.8C10 5.73333 9.93333 5.73333 9.86667 5.73333C9.8 5.73333 9.73333 5.73333 9.66667 5.8C9.6 5.86667 9.6 5.93333 9.6 6V7.86667C9.6 7.93333 9.6 8.06667 9.66667 8.06667C9.73333 8.06667 9.8 8.13333 9.86667 8.13333ZM11.4667 11.6C11.4 11.6 11.2667 11.6 11.2 11.6667C11.1333 11.7333 11 11.8 10.9333 11.8667V10.5333H10.3333V14.7333H10.9333V14.4667C11 14.5333 11.1333 14.6 11.2 14.6667C11.2667 14.7333 11.4 14.7333 11.5333 14.7333C11.7333 14.7333 11.8667 14.6667 11.9333 14.5333C12 14.4 12.0667 14.2667 12.0667 14V12.2667C12.0667 12 12 11.8 11.9333 11.6667C11.8 11.6667 11.6667 11.6 11.4667 11.6ZM11.4 14C11.4 14.1333 11.4 14.2 11.3333 14.2C11.2667 14.2667 11.2667 14.2667 11.1333 14.2667C11.0667 14.2667 11 14.2667 11 14.2C10.9333 14.2 10.9333 14.1333 10.8667 14.0667V12.1333C10.9333 12.0667 10.9333 12.0667 11 12.0667H11.1333C11.2 12.0667 11.2667 12.0667 11.3333 12.1333C11.4 12.2 11.4 12.2667 11.4 12.4V14ZM5.6 11.1333H6.33333V14.7333H7.06667V11.1333H7.8V10.5333H5.66667V11.1333H5.6ZM9.13333 14L8.93333 14.2C8.86667 14.2667 8.8 14.2667 8.73333 14.2667C8.66667 14.2667 8.6 14.2667 8.6 14.2C8.6 14.2 8.53333 14.1333 8.53333 14.0667V11.6667H8V14.2667C8 14.4667 8.06667 14.6 8.13333 14.6667C8.2 14.7333 8.33333 14.8 8.46667 14.8C8.6 14.8 8.73333 14.8 8.8 14.7333C8.93333 14.6667 9.06667 14.6 9.13333 14.4667V14.8H9.73333V11.6667H9.13333V14ZM10 0C4.46667 0 0 4.46667 0 10C0 15.5333 4.46667 20 10 20C15.5333 20 20 15.5333 20 10C20 4.46667 15.5333 0 10 0ZM11.4667 5.2H12.1333V7.8C12.1333 7.86667 12.1333 7.93333 12.2 8C12.2 8.06667 12.2667 8.06667 12.3333 8.06667C12.4 8.06667 12.4667 8.06667 12.5333 8L12.7333 7.8V5.2H13.4667V8.6H12.7333V8.2C12.6 8.33333 12.4667 8.46667 12.3333 8.53333C12.2 8.6 12.0667 8.66667 11.9333 8.66667C11.8 8.66667 11.6667 8.6 11.6 8.53333C11.5333 8.4 11.4667 8.26667 11.4667 8.06667V5.2ZM8.86667 6C8.86667 5.73333 8.93333 5.53333 9.13333 5.33333C9.33333 5.2 9.6 5.06667 9.86667 5.06667C10.1333 5.06667 10.4 5.13333 10.6 5.33333C10.8 5.46667 10.8667 5.73333 10.8667 6V7.8C10.8667 8.06667 10.8 8.33333 10.6 8.46667C10.4 8.66667 10.2 8.73333 9.86667 8.73333C9.53333 8.73333 9.33333 8.66667 9.13333 8.46667C8.93333 8.26667 8.86667 8.06667 8.86667 7.8V6ZM7 4L7.53333 5.86667H7.6L8.06667 4H8.86667L7.93333 6.73333V8.66667H7.13333V6.8L6.2 4H7ZM16.1333 13.7333C16.1333 15 15.1333 16 13.8667 16H6.06667C4.8 16 3.8 15 3.8 13.7333V11.9333C3.8 10.6667 4.8 9.66667 6.06667 9.66667H13.8667C15.1333 9.66667 16.1333 10.6667 16.1333 11.9333V13.7333ZM13.3333 11.5333C13.0667 11.5333 12.8 11.6 12.6667 11.8C12.4667 12 12.4 12.2 12.4 12.4667V13.8667C12.4 14.2 12.4667 14.4 12.6667 14.6C12.8 14.8 13.0667 14.8667 13.3333 14.8667C13.6667 14.8667 13.8667 14.8 14 14.6C14.1333 14.4667 14.2667 14.2 14.2667 13.8667V13.7333H13.6V13.8667C13.6 14.0667 13.6 14.2 13.5333 14.2C13.4667 14.2667 13.4 14.2667 13.3333 14.2667C13.2667 14.2667 13.1333 14.2667 13.1333 14.2C13.0667 14.1333 13.0667 14 13.0667 13.8667V13.2667H14.2667V12.4667C14.2667 12.2 14.2 11.9333 14.0667 11.8C13.8 11.6 13.6 11.5333 13.3333 11.5333ZM13.5333 12.7333H13V12.4C13 12.2667 13 12.2 13.0667 12.1333C13.1333 12.0667 13.2 12.0667 13.2667 12.0667C13.3333 12.0667 13.4 12.0667 13.4667 12.1333C13.5333 12.2 13.5333 12.2667 13.5333 12.4V12.7333Z" fill="#FF021D"/>
</svg>
