<svg width="200" height="200" viewBox="0 0 200 200" fill="none" xmlns="http://www.w3.org/2000/svg">
<path d="M83.3333 133.333V75L133.333 104.267L83.3333 133.333ZM198 63.8917C198 63.8917 196.042 50.0167 190.05 43.9C182.442 35.875 173.917 35.8417 170.008 35.375C142.025 33.3334 100.042 33.3334 100.042 33.3334H99.9583C99.9583 33.3334 57.975 33.3334 29.9917 35.375C26.075 35.8417 17.5583 35.875 9.94167 43.9C3.95 50.0167 2 63.9 2 63.9C2 63.9 0 80.1834 0 96.475V111.767C0 128.067 2 144.367 2 144.367C2 144.367 3.95 158.242 9.94167 164.358C17.5583 172.383 27.55 172.125 32 172.967C48 174.525 100 175 100 175C100 175 142.025 174.933 170.008 172.9C173.925 172.425 182.442 172.392 190.05 164.367C196.05 158.25 198 144.367 198 144.367C198 144.367 200 128.075 200 111.775V96.4917C200 80.1917 198 63.8917 198 63.8917Z" fill="#FF0000"/>
</svg>
