<svg width="138" height="26" viewBox="0 0 138 26" fill="none" xmlns="http://www.w3.org/2000/svg">
<path fill-rule="evenodd" clip-rule="evenodd" d="M0.467041 4.76128V24.1071C0.467041 24.6886 0.938454 25.16 1.51997 25.16H6.74415C6.82695 25.16 6.90708 25.1307 6.97039 25.0774L11.1282 21.5717C11.2672 21.4546 11.3473 21.2822 11.3473 21.1005V17.5626C11.3473 17.4844 11.4418 17.4453 11.4971 17.5006L11.7603 17.7638C11.7768 17.7803 11.786 17.8026 11.786 17.8259V24.2826C11.786 24.7672 12.1789 25.16 12.6635 25.16H17.9956C18.1219 25.16 18.244 25.1146 18.3395 25.0322L22.5446 21.4043C22.6219 21.3376 22.6663 21.2406 22.6663 21.1385V11.779C22.6663 9.86487 21.1146 8.31314 19.2004 8.31314L22.1736 1.61395C22.4054 1.09178 22.0231 0.503906 21.4518 0.503906H16.2251C16.0217 0.503906 15.8251 0.576553 15.6706 0.708746L11.3473 4.40852V1.57097C11.3473 0.983961 10.8673 0.510306 10.2803 0.518132L5.06702 0.587644C4.87296 0.590231 4.68608 0.661409 4.53947 0.788572L0.799814 4.03215C0.588452 4.21547 0.467041 4.48149 0.467041 4.76128ZM15.4586 1.26245C15.5735 1.01422 15.8221 0.855324 16.0956 0.855324H21.1621C21.6663 0.855324 22.0061 1.37116 21.807 1.83443L18.7463 8.57681H19.1129C20.3852 8.57681 22.3155 9.96223 22.3155 11.7795V20.9487C22.3155 21.3364 22.0013 21.6507 21.6136 21.6507H16.5244C16.1367 21.6507 15.8225 21.3364 15.8225 20.9487V14.8944C15.8225 14.4098 15.4296 14.0169 14.945 14.0169H11.0843V20.9487C11.0843 21.3364 10.77 21.6507 10.3823 21.6507H5.20543C4.81775 21.6507 4.50348 21.3364 4.50348 20.9487V1.55728C4.50348 1.1696 4.81775 0.855324 5.20543 0.855324H10.3823C10.77 0.855324 11.0843 1.1696 11.0843 1.55728V8.57681H12.2148L15.4586 1.26245Z" fill="url(#paint0_linear_703_1312)"/>
<path d="M8.18845 3.48633V11.2298M8.18845 18.9732V11.2298M8.18845 11.2298H14.6815M19.3758 18.9732V13.8621C19.3758 12.4083 18.1973 11.2298 16.7435 11.2298H14.6815M14.6815 11.2298L17.9719 3.48633" stroke="url(#paint1_linear_703_1312)" stroke-width="0.425105" stroke-linecap="round"/>
<path fill-rule="evenodd" clip-rule="evenodd" d="M24.6664 4.91998V24.1098C24.6664 24.6893 25.1361 25.159 25.7156 25.159H39.5015C39.746 25.159 39.9827 25.0737 40.1709 24.9177L44.0902 21.6704C44.3307 21.4711 44.47 21.1749 44.47 20.8625V17.0278C44.47 16.4483 44.0002 15.9786 43.4208 15.9786H39.224L42.0695 13.3805C42.1784 13.2811 42.2404 13.1405 42.2404 12.993V9.31763C42.2404 9.21406 42.2098 9.11281 42.1523 9.02664L41.7158 8.3719L44.1036 6.32526C44.3361 6.12593 44.47 5.83493 44.47 5.52865V1.55212C44.47 0.97267 44.0002 0.50293 43.4208 0.50293H29.6447C29.3943 0.50293 29.1521 0.592523 28.9619 0.755517L25.0328 4.12337C24.8002 4.3227 24.6664 4.61369 24.6664 4.91998ZM28.8632 1.81443V20.8311C28.8632 21.2657 29.2155 21.618 29.6501 21.618H43.2896C43.7242 21.618 44.0765 21.2657 44.0765 20.8311V17.1589C44.0765 16.7243 43.7242 16.372 43.2896 16.372H35.2895V13.749H40.9289C41.3635 13.749 41.7158 13.3967 41.7158 12.9621V9.4211C41.7158 8.98651 41.3635 8.6342 40.9289 8.6342H35.2895V6.27351H43.2896C43.7242 6.27351 44.0765 5.92121 44.0765 5.48662V1.81443C44.0765 1.37984 43.7242 1.02753 43.2896 1.02753H29.6501C29.2155 1.02753 28.8632 1.37984 28.8632 1.81443Z" fill="url(#paint2_linear_703_1312)"/>
<path d="M41.5847 3.65039H32.0108V11.3226M41.5847 18.9949H32.0108V11.3226M32.0108 11.3226H39.224" stroke="url(#paint3_linear_703_1312)" stroke-width="0.425105" stroke-linecap="round"/>
<path fill-rule="evenodd" clip-rule="evenodd" d="M46.4699 4.91998V24.1098C46.4699 24.6893 46.9397 25.159 47.5191 25.159H61.3051C61.5495 25.159 61.7863 25.0737 61.9745 24.9177L65.8937 21.6704C66.1343 21.4711 66.2735 21.1749 66.2735 20.8625V17.0278C66.2735 16.4483 65.8038 15.9786 65.2243 15.9786H61.0275L63.8731 13.3805C63.982 13.2811 64.044 13.1405 64.044 12.993V9.31763C64.044 9.21406 64.0133 9.11281 63.9559 9.02664L63.5194 8.3719L65.9071 6.32526C66.1397 6.12593 66.2735 5.83493 66.2735 5.52865V1.55212C66.2735 0.97267 65.8038 0.50293 65.2243 0.50293H51.4483C51.1978 0.50293 50.9556 0.592523 50.7655 0.755517L46.8363 4.12337C46.6038 4.3227 46.4699 4.61369 46.4699 4.91998ZM50.6668 1.81443V20.8311C50.6668 21.2657 51.0191 21.618 51.4536 21.618H65.0932C65.5278 21.618 65.8801 21.2657 65.8801 20.8311V17.1589C65.8801 16.7243 65.5278 16.372 65.0932 16.372H57.0931V13.749H62.7325C63.1671 13.749 63.5194 13.3967 63.5194 12.9621V9.4211C63.5194 8.98651 63.1671 8.6342 62.7325 8.6342H57.0931V6.27351H65.0932C65.5278 6.27351 65.8801 5.92121 65.8801 5.48662V1.81443C65.8801 1.37984 65.5278 1.02753 65.0932 1.02753H51.4536C51.0191 1.02753 50.6668 1.37984 50.6668 1.81443Z" fill="url(#paint4_linear_703_1312)"/>
<path d="M63.3882 3.65039H53.8143V11.3226M63.3882 18.9949H53.8143V11.3226M53.8143 11.3226H61.0276" stroke="url(#paint5_linear_703_1312)" stroke-width="0.425105" stroke-linecap="round"/>
<path fill-rule="evenodd" clip-rule="evenodd" d="M68.2735 4.56102V24.3679C68.2735 24.8048 68.6277 25.159 69.0646 25.159H74.1854C74.3697 25.159 74.5482 25.0947 74.6901 24.9771L78.9898 21.4145C79.0503 21.3644 79.0853 21.2899 79.0853 21.2114V19.4597C79.0853 19.3262 79.185 19.2138 79.3176 19.1979L81.7685 18.9038C82.1734 18.8552 82.5645 18.7299 82.9165 18.5242C83.7022 18.065 85.167 17.17 86.0222 16.4057C86.7116 15.7897 87.6591 14.7368 88.3469 13.9447C88.9301 13.2731 89.2378 12.4104 89.2378 11.5209V5.77696C89.2378 2.86419 86.8765 0.50293 83.9638 0.50293H72.915C72.7275 0.50293 72.5461 0.569513 72.4032 0.69081L68.5528 3.95779C68.3757 4.1081 68.2735 4.32869 68.2735 4.56102ZM72.0165 1.77027V20.8886C72.0165 21.3256 72.3707 21.6798 72.8076 21.6798H77.5542C77.9911 21.6798 78.3453 21.3256 78.3453 20.8886V15.8783H83.7512C86.5184 15.8783 88.7616 13.6351 88.7616 10.868V5.9895C88.7616 3.22237 86.5184 0.979168 83.7512 0.979168H72.8076C72.3707 0.979168 72.0165 1.33336 72.0165 1.77027Z" fill="url(#paint6_linear_703_1312)"/>
<path d="M78.6898 10.3921V6.17285H81.5825C82.1695 6.17285 82.6453 6.64867 82.6453 7.23561V9.32932C82.6453 9.91626 82.1695 10.3921 81.5825 10.3921H78.6898Z" fill="url(#paint7_linear_703_1312)"/>
<path d="M75.6571 18.8299V12.7648M75.6571 12.7648V3.13965H82.6214C84.3822 3.13965 85.8097 4.56709 85.8097 6.32794V9.57647C85.8097 11.3373 84.3822 12.7648 82.6214 12.7648H75.6571Z" stroke="url(#paint8_linear_703_1312)" stroke-width="0.425105" stroke-linecap="round"/>
<path fill-rule="evenodd" clip-rule="evenodd" d="M93.2378 4.48415L93.2378 18.1205C93.2378 20.1931 93.756 22.3953 95.9582 23.6908C98.1603 24.9862 101.658 25.2854 103.601 25.1157L103.621 25.1139C105.819 24.922 108.526 24.6856 110.337 23.4317C111.887 22.3588 113.546 20.9569 114.71 18.7213C114.913 18.3311 115.001 17.8972 115.001 17.4574L115.001 1.27267C115.001 0.843409 114.653 0.50293 114.223 0.50293H109.068C108.884 0.50293 108.706 0.568347 108.565 0.687518L104.782 3.89726C104.608 4.04494 104.508 4.26166 104.508 4.48992V15.6592L103.99 15.1411V1.53926C103.99 0.96691 103.526 0.50293 102.953 0.50293H97.798C97.6138 0.50293 97.4355 0.568347 97.2951 0.687518L93.5122 3.89726C93.3381 4.04494 93.2378 4.25589 93.2378 4.48415ZM96.9945 1.79814V16.9544C96.9945 16.9544 96.0877 22.0065 105.803 22.0065C115.001 22.0065 114.483 16.9544 114.483 16.9544V1.79814C114.483 1.36887 114.135 1.02089 113.705 1.02089H109.042C108.613 1.02089 108.265 1.36887 108.265 1.79814V15.3999C108.265 15.3999 108.524 16.4363 105.803 16.4363C103.99 16.4363 103.342 15.3999 103.342 15.3999V1.79814C103.342 1.36888 102.994 1.02089 102.565 1.02089H97.7717C97.3425 1.02089 96.9945 1.36887 96.9945 1.79814Z" fill="url(#paint9_linear_703_1312)"/>
<path d="M99.9842 3.87109V15.4002C99.9842 15.4002 99.466 19.416 105.814 19.416C111.643 19.416 111.254 15.4002 111.254 15.4002V3.87109" stroke="url(#paint10_linear_703_1312)" stroke-width="0.518164" stroke-linecap="round"/>
<path fill-rule="evenodd" clip-rule="evenodd" d="M117.001 4.56102V24.3679C117.001 24.8048 117.355 25.159 117.792 25.159H122.913C123.097 25.159 123.275 25.0947 123.417 24.9771L127.717 21.4145C127.777 21.3644 127.812 21.2899 127.812 21.2114V19.4597C127.812 19.3262 127.912 19.2138 128.045 19.1979L130.496 18.9038C130.901 18.8552 131.292 18.7299 131.644 18.5242C132.429 18.065 133.894 17.17 134.749 16.4057C135.439 15.7897 136.386 14.7368 137.074 13.9447C137.657 13.2731 137.965 12.4104 137.965 11.5209V5.77696C137.965 2.86419 135.604 0.50293 132.691 0.50293H121.642C121.455 0.50293 121.273 0.569513 121.13 0.69081L117.28 3.95779C117.103 4.1081 117.001 4.32869 117.001 4.56102ZM120.744 1.77027V20.8886C120.744 21.3256 121.098 21.6798 121.535 21.6798H126.281C126.718 21.6798 127.073 21.3256 127.073 20.8886V15.8783H132.478C135.246 15.8783 137.489 13.6351 137.489 10.868V5.9895C137.489 3.22237 135.246 0.979168 132.478 0.979168H121.535C121.098 0.979168 120.744 1.33336 120.744 1.77027Z" fill="url(#paint11_linear_703_1312)"/>
<path d="M127.417 10.3921V6.17285H130.31C130.897 6.17285 131.372 6.64867 131.372 7.23561V9.32932C131.372 9.91626 130.897 10.3921 130.31 10.3921H127.417Z" fill="url(#paint12_linear_703_1312)"/>
<path d="M124.384 18.8299V12.7648M124.384 12.7648V3.13965H131.349C133.109 3.13965 134.537 4.56709 134.537 6.32794V9.57647C134.537 11.3373 133.109 12.7648 131.349 12.7648H124.384Z" stroke="url(#paint13_linear_703_1312)" stroke-width="0.425105" stroke-linecap="round"/>
<defs>
<linearGradient id="paint0_linear_703_1312" x1="21.3734" y1="0.503906" x2="0.46704" y2="25.16" gradientUnits="userSpaceOnUse">
<stop stop-color="#F505F7"/>
<stop offset="1" stop-color="#FF884C"/>
</linearGradient>
<linearGradient id="paint1_linear_703_1312" x1="7.70969" y1="18.9951" x2="17.6235" y2="3.48232" gradientUnits="userSpaceOnUse">
<stop stop-color="#FF884C"/>
<stop offset="1" stop-color="#F505F7"/>
</linearGradient>
<linearGradient id="paint2_linear_703_1312" x1="43.3165" y1="0.50293" x2="22.1524" y2="22.7695" gradientUnits="userSpaceOnUse">
<stop stop-color="#F505F7"/>
<stop offset="1" stop-color="#FF884C"/>
</linearGradient>
<linearGradient id="paint3_linear_703_1312" x1="31.6011" y1="19.0166" x2="41.9517" y2="5.02756" gradientUnits="userSpaceOnUse">
<stop stop-color="#FF884C"/>
<stop offset="1" stop-color="#F505F7"/>
</linearGradient>
<linearGradient id="paint4_linear_703_1312" x1="65.1201" y1="0.50293" x2="43.9559" y2="22.7695" gradientUnits="userSpaceOnUse">
<stop stop-color="#F505F7"/>
<stop offset="1" stop-color="#FF884C"/>
</linearGradient>
<linearGradient id="paint5_linear_703_1312" x1="53.4046" y1="19.0166" x2="63.7553" y2="5.02756" gradientUnits="userSpaceOnUse">
<stop stop-color="#FF884C"/>
<stop offset="1" stop-color="#F505F7"/>
</linearGradient>
<linearGradient id="paint6_linear_703_1312" x1="88.0168" y1="0.50293" x2="66.9477" y2="23.9687" gradientUnits="userSpaceOnUse">
<stop stop-color="#F505F7"/>
<stop offset="1" stop-color="#FF884C"/>
</linearGradient>
<linearGradient id="paint7_linear_703_1312" x1="82.4149" y1="6.17285" x2="78.8637" y2="10.5337" gradientUnits="userSpaceOnUse">
<stop stop-color="#F505F7"/>
<stop offset="1" stop-color="#FF884C"/>
</linearGradient>
<linearGradient id="paint8_linear_703_1312" x1="75.2227" y1="18.8521" x2="85.6882" y2="4.18351" gradientUnits="userSpaceOnUse">
<stop stop-color="#FF884C"/>
<stop offset="1" stop-color="#F505F7"/>
</linearGradient>
<linearGradient id="paint9_linear_703_1312" x1="113.733" y1="0.50293" x2="92.7629" y2="24.7483" gradientUnits="userSpaceOnUse">
<stop stop-color="#F505F7"/>
<stop offset="1" stop-color="#FF884C"/>
</linearGradient>
<linearGradient id="paint10_linear_703_1312" x1="99.491" y1="19.438" x2="109.421" y2="3.82198" gradientUnits="userSpaceOnUse">
<stop stop-color="#FF884C"/>
<stop offset="1" stop-color="#F505F7"/>
</linearGradient>
<linearGradient id="paint11_linear_703_1312" x1="136.744" y1="0.50293" x2="115.675" y2="23.9687" gradientUnits="userSpaceOnUse">
<stop stop-color="#F505F7"/>
<stop offset="1" stop-color="#FF884C"/>
</linearGradient>
<linearGradient id="paint12_linear_703_1312" x1="131.142" y1="6.17285" x2="127.591" y2="10.5337" gradientUnits="userSpaceOnUse">
<stop stop-color="#F505F7"/>
<stop offset="1" stop-color="#FF884C"/>
</linearGradient>
<linearGradient id="paint13_linear_703_1312" x1="123.95" y1="18.8521" x2="134.415" y2="4.18351" gradientUnits="userSpaceOnUse">
<stop stop-color="#FF884C"/>
<stop offset="1" stop-color="#F505F7"/>
</linearGradient>
</defs>
</svg>
